<svg id="Layer_3" stroke="#fff" fill="#fff" enable-background="new 0 0 64 64" height="512" viewBox="0 0 64 64" width="512" xmlns="http://www.w3.org/2000/svg"><path d="m61 39h-6v-3c0-1.654-1.346-3-3-3h-10c-.862 0-1.635.371-2.183.955l-10.817-1.802v-2.506c2.984-1.732 5-4.955 5-8.647h1c1.654 0 3-1.346 3-3s-1.346-3-3-3h-.48l.548-1.271c1.028-2.381.844-5.131-.49-7.355-.846-1.41-2.083-2.515-3.579-3.195l-2.791-1.271c-3.295-1.5-7.334-1.061-10.231 1.11l-1.577 1.182.002.003c-1.56.407-2.937 1.411-3.783 2.821-1.101 1.836-1.187 4.075-.23 5.99l.993 1.986h-.382c-1.654 0-3 1.346-3 3s1.346 3 3 3h1c0 3.692 2.016 6.915 5 8.647v2.506l-12.151 2.025c-3.389.565-5.849 3.468-5.849 6.905v20.917c0 .553.448 1 1 1h31 1 27c1.103 0 2-.897 2-2v-20c0-1.103-.897-2-2-2zm-8-3v3h-6.332c-.536-1.711-1.706-3.133-3.239-4h8.571c.551 0 1 .448 1 1zm-12 .195c1.575.323 2.874 1.381 3.53 2.805h-3.53zm-5-18.195c0 .551-.449 1-1 1h-1v-2h1c.551 0 1 .449 1 1zm-21.666-9.947c.76-1.266 2.15-2.053 3.626-2.053 1.568 0 3.023.779 3.894 2.083l.314.471 1.664-1.109-.314-.471c-.902-1.352-2.247-2.302-3.772-2.724 2.264-1.404 5.197-1.632 7.633-.523l2.791 1.271c1.125.512 2.056 1.343 2.693 2.404 1.004 1.673 1.142 3.742.369 5.534l-.067.156-1.27-2.54c-.133-.265-.376-.458-.665-.526-.288-.069-.592-.004-.83.173l-1.6 1.2c-1.376 1.033-3.081 1.601-4.8 1.601s-3.424-.568-4.8-1.6l-1.6-1.2c-.238-.179-.543-.243-.83-.173-.289.068-.532.261-.665.526l-1.355 2.711-.572-1.144c-.65-1.3-.592-2.821.156-4.067zm-1.334 10.947c-.551 0-1-.449-1-1s.449-1 1-1h1v2zm3 2v-5.764l1.358-2.717.642.481c1.72 1.29 3.851 2 6 2s4.28-.71 6-2l.642-.481 1.358 2.717v5.764c0 4.411-3.589 8-8 8s-8-3.589-8-8zm8 10c1.045 0 2.052-.162 3-.461v2.047l-3 3-3-3v-2.047c.948.299 1.955.461 3 .461zm-.323 11h.646l1.632 4.08-1.955 8.473-1.955-8.473zm2.219-4.147-1.431 2.147h-.93l-1.432-2.147.334-1.001.856.856c.195.194.451.292.707.292s.512-.098.707-.293l.856-.856zm-12.896 23.147v-17h-2v17h-8v-19.917c0-2.454 1.757-4.529 4.178-4.933l12.479-2.079 1.199 1.199-.805 2.414c-.098.293-.055.614.117.871l1.708 2.562-1.805 4.512c-.076.189-.091.397-.046.596l3 13c.105.454.509.775.975.775s.87-.321.975-.775l3-13c.045-.198.03-.406-.046-.596l-1.805-4.512 1.708-2.562c.171-.257.214-.578.117-.871l-.805-2.414 1.199-1.199 10.672 1.778c-.002.051-.015.099-.015.151v3h-6c-1.103 0-2 .897-2 2v20zm21 0h-1v-2h28.001v2zm27.001-4h-28.001v-8.111c1.272 1.301 3.042 2.111 5 2.111h6v1c0 1.654 1.346 3 3 3s3-1.346 3-3v-1h6c1.958 0 3.729-.811 5.001-2.111zm-15.001-5v-5h2v5c0 .552-.449 1-1 1s-1-.448-1-1zm15-8c0 2.757-2.243 5-5 5h-6v-3c0-.553-.448-1-1-1h-4c-.552 0-1 .447-1 1v3h-6c-2.757 0-5-2.243-5-5v-3h28z"/></svg>
