<svg id="Capa_1" stroke="#fff" fill="#fff" enable-background="new 0 0 512 512" height="512" viewBox="0 0 512 512" width="512" xmlns="http://www.w3.org/2000/svg"><g><path d="m480.892 274.582c-18.896-6.396-38.938-.29-51.058 15.558l-55.864 73.053c.009-.398.03-.793.03-1.193 0-27.57-22.43-50-50-50h-99.231c-31.637-26.915-76.35-31.705-112.769-12.853v-2.147c0-8.284-6.716-15-15-15h-82c-8.284 0-15 6.716-15 15v200c0 8.284 6.716 15 15 15h82c8.284 0 15-6.716 15-15v-15h245.864c35.896 0 68.913-18.026 88.324-48.221l58.538-91.06c4.759-7.401 7.273-15.964 7.273-24.764.001-19.95-12.21-36.976-31.107-43.373zm-398.892 207.418h-52v-170h52zm397.491-155.504-58.539 91.061c-13.864 21.567-37.448 34.443-63.088 34.443h-245.864v-117.281l5.017-3.583c28.141-20.101 66.657-17.293 91.587 6.677 2.794 2.687 6.52 4.188 10.396 4.188h105c11.028 0 20 8.972 20 20s-8.972 20-20 20h-105-2c-8.284 0-15 6.716-15 15s6.716 15 15 15h2 105 13.35c23.208 0 45.479-11.006 59.576-29.441l56.738-74.195c6.385-8.348 15.09-6.217 17.608-5.365 2.517.853 10.728 4.449 10.728 14.958 0 3.033-.867 5.985-2.509 8.538z"/><path d="m262.055 179.712c9.488 6.207 16.181 8.388 24.255 9.086v6.202c0 5.522 4.478 10 10 10s10-4.478 10-10v-7.162c16.616-4.215 27.266-18.408 29.619-32.403 3.026-18.005-6.751-34.277-24.329-40.491-1.741-.615-3.515-1.255-5.29-1.914v-32.311c3.055 1.126 4.645 2.657 4.872 2.888 3.638 4.104 9.909 4.514 14.051.905 4.164-3.627 4.6-9.944.972-14.108-3.323-3.815-10.186-8.595-19.895-10.276v-5.128c0-5.522-4.478-10-10-10s-10 4.478-10 10v6.224c-.616.163-1.238.336-1.865.525-11.853 3.57-20.705 13.689-23.102 26.407-2.199 11.671 1.59 22.963 9.889 29.472 3.917 3.073 8.691 5.889 15.078 8.817v42.231c-4.52-.635-7.905-2.167-13.306-5.7-4.622-3.026-10.82-1.727-13.843 2.894s-1.728 10.818 2.894 13.842zm44.255-45.373c10.822 4.558 10.552 13.873 9.896 17.781-.911 5.42-4.271 11.118-9.896 14.339zm-22.736-32.447c-2.365-1.854-3.376-5.792-2.577-10.031.579-3.073 2.261-6.615 5.312-8.956v20.913c-.984-.631-1.902-1.273-2.735-1.926z"/><path d="m297 250c68.925 0 125-56.075 125-125s-56.075-125-125-125-125 56.075-125 125 56.075 125 125 125zm0-220c52.383 0 95 42.617 95 95s-42.617 95-95 95-95-42.617-95-95 42.617-95 95-95z"/></g></svg>
